<?xml version="1.0" standalone="no"?>
<!DOCTYPE svg PUBLIC "-//W3C//DTD SVG 1.1//EN" "http://www.w3.org/Graphics/SVG/1.1/DTD/svg11.dtd">
<svg width="100%" height="100%" viewBox="0 0 100 125" version="1.1" xmlns="http://www.w3.org/2000/svg" xmlns:xlink="http://www.w3.org/1999/xlink" xml:space="preserve" style="fill-rule:evenodd;clip-rule:evenodd;stroke-linejoin:round;stroke-miterlimit:1.41421;">
    <path d="M85.791,69.5L85.791,63L90.375,63C93.408,62.5 95.875,60.032 95.875,57L95.875,43C95.875,39.968 93.408,37.5 90.375,37L85.791,37L85.791,30.5C85.791,27.468 83.324,25 80.291,25L9.625,25C6.592,25 4.125,27.468 4.125,30.5L4.125,69.5C4.125,72.532 6.592,75 9.625,75L80.291,75C83.324,75 85.791,72.532 85.791,69.5ZM9.625,70C9.35,70 9.125,69.775 9,69.5L9,30.5C9.125,30.225 9.35,30 9.625,30L80.291,30C80.567,30 80.791,30.225 81,30.5L81,69.5C80.791,69.775 80.567,70 80.291,70L9.625,70ZM12,33L12,67L17.5,67L27.5,33L12,33ZM46.829,50.885L30.547,43.927L50.285,60.832L53.213,50.885L69.133,56.322L50.285,39.521L46.829,50.885Z" style="fill:black;fill-rule:nonzero;"/>
</svg>
